<?xml version="1.0" encoding="utf-8"?>
<!-- Generator: Adobe Illustrator 18.0.0, SVG Export Plug-In . SVG Version: 6.00 Build 0)  -->
<!DOCTYPE svg PUBLIC "-//W3C//DTD SVG 1.1//EN" "http://www.w3.org/Graphics/SVG/1.1/DTD/svg11.dtd">
<svg version="1.1" id="Camada_1" xmlns="http://www.w3.org/2000/svg" xmlns:xlink="http://www.w3.org/1999/xlink" x="0px" y="0px"
	 viewBox="0 0 76 76" enable-background="new 0 0 76 76" xml:space="preserve">
<g>
	<g>
		<path stroke="#000000" stroke-width="2" stroke-miterlimit="10" d="M49.2,34.7c1.3,1.3,2,2,3.3,3.3c-1.3,1.3-2,2-3.3,3.3l2.1,2.1
			c1.8-1.8,3.6-3.6,5.3-5.3c-1.8-1.8-3.6-3.6-5.3-5.3L49.2,34.7z"/>
		<path stroke="#000000" stroke-width="2" stroke-miterlimit="10" d="M26.8,41.3c-1.3-1.3-2-2-3.3-3.3c1.3-1.3,2-2,3.3-3.3l-2.1-2.1
			c-1.8,1.8-3.6,3.6-5.3,5.3c1.8,1.8,3.6,3.6,5.3,5.3L26.8,41.3z"/>
	</g>
	<g>
		<path stroke="#000000" stroke-width="2" stroke-miterlimit="10" d="M41.3,49.2c-1.3,1.3-2,2-3.3,3.3c-1.3-1.3-2-2-3.3-3.3
			l-2.1,2.1c1.8,1.8,3.6,3.6,5.3,5.3c1.8-1.8,3.6-3.6,5.3-5.3L41.3,49.2z"/>
		<path stroke="#000000" stroke-width="2" stroke-miterlimit="10" d="M34.7,26.8c1.3-1.3,2-2,3.3-3.3c1.3,1.3,2,2,3.3,3.3l2.1-2.1
			c-1.8-1.8-3.6-3.6-5.3-5.3c-1.8,1.8-3.6,3.6-5.3,5.3L34.7,26.8z"/>
	</g>
</g>
<rect x="10.7" y="10.7" fill="none" stroke="#000000" stroke-width="6" stroke-miterlimit="10" width="54.5" height="54.5"/>
</svg>
