<?xml version="1.0" encoding="utf-8"?>
<!-- Generator: Adobe Illustrator 18.0.0, SVG Export Plug-In . SVG Version: 6.00 Build 0)  -->
<!DOCTYPE svg PUBLIC "-//W3C//DTD SVG 1.1//EN" "http://www.w3.org/Graphics/SVG/1.1/DTD/svg11.dtd">
<svg version="1.1" id="Camada_1" xmlns="http://www.w3.org/2000/svg" xmlns:xlink="http://www.w3.org/1999/xlink" x="0px" y="0px"
	 viewBox="0 0 76 76" enable-background="new 0 0 76 76" xml:space="preserve">
<g>
	<path stroke="#000000" stroke-width="3" stroke-miterlimit="10" d="M46.9,16.8c4.1,0,8.2,0,12.3,0c0,4.1,0,8.2,0,12.3h4.1
		c0-5.3,0-10.7,0-16c0-0.2,0-0.3,0-0.5c-5.5,0-11,0-16.4,0V16.8z"/>
	<path stroke="#000000" stroke-width="3" stroke-miterlimit="10" d="M16.8,29.1c0-4.1,0-8.2,0-12.3c4.1,0,8.2,0,12.3,0v-4.2
		c-5.5,0-11,0-16.5,0c0,5.5,0,11,0,16.5H16.8z"/>
	<path stroke="#000000" stroke-width="3" stroke-miterlimit="10" d="M29.1,59.3c-4.1,0-8.2,0-12.3,0c0-4.1,0-8.3,0-12.4h-4.2
		c0,5.5,0,11,0,16.4c0.4,0,0.7,0,1.1,0c5.1,0,10.3,0,15.4,0V59.3z"/>
	<path stroke="#000000" stroke-width="3" stroke-miterlimit="10" d="M59.3,46.9c0,4.1,0,8.2,0,12.4c-4.1,0-8.2,0-12.3,0v4.1
		c5.1,0,10.1,0,15.2,0c0.4,0,0.8,0,1.2,0c0-0.4,0-0.6,0-0.9c0-5.2,0-10.4,0-15.6H59.3z"/>
</g>
</svg>
